<?xml version="1.0" standalone="no"?>
<!DOCTYPE svg PUBLIC "-//W3C//DTD SVG 20010904//EN"
 "http://www.w3.org/TR/2001/REC-SVG-20010904/DTD/svg10.dtd">
<svg version="1.0" xmlns="http://www.w3.org/2000/svg"
 width="700.000000pt" height="700.000000pt" viewBox="0 0 700.000000 700.000000"
 preserveAspectRatio="xMidYMid meet">
<metadata>
Created by potrace 1.11, written by Peter Selinger 2001-2013
</metadata>
<g transform="translate(0.000000,700.000000) scale(0.100000,-0.100000)"
fill="#000000" stroke="none">
<path d="M3387 6124 c-1 -1 -42 -5 -92 -8 -49 -3 -99 -8 -111 -10 -12 -2 -45
-7 -75 -11 -159 -20 -468 -103 -591 -159 -18 -8 -55 -24 -83 -37 -590 -259
-1079 -750 -1340 -1346 -45 -103 -128 -340 -139 -398 -3 -16 -14 -70 -25 -120
-17 -80 -24 -118 -36 -205 -23 -158 -23 -532 1 -670 2 -14 7 -41 10 -60 87
-553 338 -1049 728 -1443 97 -97 160 -152 336 -290 17 -14 101 -69 180 -118
72 -46 235 -128 335 -169 44 -18 89 -36 100 -41 81 -34 310 -97 435 -119 235
-43 472 -56 573 -33 237 54 385 287 332 521 -18 77 -33 108 -99 197 -69 94
-83 122 -100 193 -51 220 70 436 288 513 54 18 86 20 430 24 408 4 422 5 583
46 499 127 891 505 1036 999 66 225 77 402 42 695 -12 104 -48 255 -90 384
-203 608 -685 1122 -1326 1412 -128 58 -352 138 -446 160 -27 6 -56 13 -65 15
-25 6 -97 21 -138 29 -14 3 -59 10 -100 16 -41 5 -86 12 -100 14 -87 13 -443
28 -453 19z m-471 -609 c267 -95 373 -412 219 -650 -135 -209 -430 -259 -630
-107 -126 96 -193 272 -163 430 29 157 158 294 318 339 69 19 185 14 256 -12z
m1438 8 c192 -57 322 -244 310 -444 -5 -69 -28 -155 -50 -180 -8 -8 -14 -20
-14 -26 0 -6 -26 -38 -57 -70 -138 -143 -342 -175 -522 -84 -93 48 -194 178
-217 281 -12 56 -12 161 1 210 20 75 64 151 121 206 51 50 134 99 183 109 13
2 26 6 28 9 11 11 171 2 217 -11z m-2327 -1169 c29 -8 77 -31 106 -50 235
-156 268 -475 70 -673 -69 -68 -117 -95 -210 -117 -365 -85 -659 303 -479 632
100 184 307 268 513 208z m3163 12 c107 -18 229 -105 287 -203 41 -70 53 -109
60 -193 22 -287 -233 -514 -517 -460 -172 32 -306 168 -346 350 -11 47 -3 152
15 211 66 211 273 333 501 295z"/>
</g>
</svg>
